<?xml version="1.0" encoding="UTF-8" standalone="no"?><!-- Generator: Gravit.io --><svg xmlns="http://www.w3.org/2000/svg" xmlns:xlink="http://www.w3.org/1999/xlink" style="isolation:isolate" viewBox="0 0 128 128" width="128pt" height="128pt"><defs><clipPath id="_clipPath_lHZB0zcacMX1NMpwFIV8YEusEZ7SFGau"><rect width="128" height="128"/></clipPath></defs><g clip-path="url(#_clipPath_lHZB0zcacMX1NMpwFIV8YEusEZ7SFGau)"><rect width="128" height="128" style="fill:rgb(25,25,25)" fill-opacity="0"/><defs><filter id="v0LuYPV6LggOerU331WVhICytuge3UDI" x="-200%" y="-200%" width="400%" height="400%" filterUnits="objectBoundingBox" color-interpolation-filters="sRGB"><feGaussianBlur xmlns="http://www.w3.org/2000/svg" in="SourceGraphic" stdDeviation="2.146804531419514"/><feOffset xmlns="http://www.w3.org/2000/svg" dx="0" dy="0" result="pf_100_offsetBlur"/><feFlood xmlns="http://www.w3.org/2000/svg" flood-color="#000000" flood-opacity="0.65"/><feComposite xmlns="http://www.w3.org/2000/svg" in2="pf_100_offsetBlur" operator="in" result="pf_100_dropShadow"/><feBlend xmlns="http://www.w3.org/2000/svg" in="SourceGraphic" in2="pf_100_dropShadow" mode="normal"/></filter></defs><g filter="url(#v0LuYPV6LggOerU331WVhICytuge3UDI)"><linearGradient id="_lgradient_0" x1="0.1464466094067262" y1="0.14644660940672627" x2="0.8535533905932737" y2="0.8535533905932737" gradientTransform="matrix(110,0,0,110,9,9)" gradientUnits="userSpaceOnUse"><stop offset="0%" stop-opacity="1" style="stop-color:rgb(255,219,90)"/><stop offset="100%" stop-opacity="1" style="stop-color:rgb(225,143,71)"/></linearGradient><path d=" M 119 63.998 C 119 94.376 94.376 119 63.998 119 C 33.624 119 9 94.376 9 63.998 C 9 33.624 33.624 9 63.998 9 C 94.376 9 119 33.624 119 63.998 Z " fill="url(#_lgradient_0)" vector-effect="non-scaling-stroke" stroke-width="1" stroke="rgb(149,114,70)" stroke-opacity="0.34" stroke-linejoin="miter" stroke-linecap="butt" stroke-miterlimit="4"/></g><defs><filter id="kn3ufu7WqtCugONx8mMHxeU3Ynw7JPDd" x="-200%" y="-200%" width="400%" height="400%" filterUnits="objectBoundingBox" color-interpolation-filters="sRGB"><feOffset xmlns="http://www.w3.org/2000/svg" in="SourceGraphic" dx="0" dy="0"/><feGaussianBlur xmlns="http://www.w3.org/2000/svg" stdDeviation="2.146804531419514" result="pf_100_offsetBlur"/><feComposite xmlns="http://www.w3.org/2000/svg" in="SourceGraphic" in2="pf_100_offsetBlur" result="pf_100_inverse" operator="out"/><feFlood xmlns="http://www.w3.org/2000/svg" flood-color="#000000" flood-opacity="0.5" result="pf_100_color"/><feComposite xmlns="http://www.w3.org/2000/svg" in="pf_100_color" in2="pf_100_inverse" operator="in" result="pf_100_shadow"/><feComposite xmlns="http://www.w3.org/2000/svg" in="pf_100_shadow" in2="SourceGraphic" operator="over"/></filter></defs><g filter="url(#kn3ufu7WqtCugONx8mMHxeU3Ynw7JPDd)"><path d=" M 69.538 58.965 C 70.807 58.527 71.752 57.86 72.392 56.98 C 73.028 56.092 73.344 55.06 73.344 53.894 C 73.344 52.686 73.043 51.654 72.441 50.796 C 71.835 49.939 70.955 49.329 69.82 48.967 C 68.673 48.602 66.627 48.419 63.689 48.419 L 58.645 48.419 L 58.645 59.632 L 63.689 59.632 C 66.326 59.628 68.273 59.407 69.538 58.965 L 69.538 58.965 Z  M 86.18 73.939 C 86.18 71.896 85.696 70.048 84.729 68.387 C 83.761 66.718 82.443 65.434 80.808 64.501 C 79.661 63.838 78.019 63.232 75.859 62.687 C 77.867 62.005 79.482 61.144 80.701 60.097 C 81.924 59.053 82.862 57.849 83.513 56.488 C 84.161 55.124 84.485 53.684 84.485 52.168 C 84.485 50.08 83.871 48.16 82.652 46.411 C 81.418 44.666 79.661 43.321 77.375 42.391 C 76.484 42.029 75.424 41.755 74.285 41.534 L 74.285 33.415 L 66.494 33.415 L 66.494 40.985 L 61.487 40.985 L 61.487 33.415 L 53.696 33.415 L 53.696 40.985 L 41.812 40.985 L 41.812 47.348 L 43.63 47.348 C 44.837 47.348 45.657 47.462 46.087 47.68 C 46.518 47.897 46.819 48.198 46.994 48.567 C 47.173 48.941 47.261 49.813 47.261 51.173 L 47.261 76.83 C 47.261 78.179 47.177 79.036 46.994 79.421 C 46.819 79.81 46.518 80.107 46.087 80.309 C 45.657 80.518 44.841 80.625 43.63 80.625 L 41.812 80.625 L 41.812 86.988 L 53.696 86.988 L 53.696 94.555 L 61.487 94.555 L 61.487 86.988 L 65.918 86.988 C 66.124 86.988 66.311 86.984 66.497 86.984 L 66.497 94.555 L 74.289 94.555 L 74.289 86.333 C 75.596 86.081 76.75 85.765 77.722 85.365 C 80.408 84.294 82.484 82.732 83.967 80.675 C 85.441 78.632 86.18 76.381 86.18 73.939 L 86.18 73.939 Z  M 70.422 67.115 C 69.149 66.631 67.206 66.387 64.6 66.387 L 58.645 66.387 L 58.645 76.346 C 58.668 77.756 58.721 78.579 58.809 78.819 C 58.919 79.12 59.098 79.341 59.354 79.459 C 59.605 79.574 60.291 79.646 61.407 79.646 L 64.76 79.646 C 66.711 79.646 68.33 79.459 69.606 79.09 C 70.894 78.732 71.988 77.977 72.879 76.83 C 73.771 75.684 74.228 74.316 74.228 72.708 C 74.228 71.348 73.908 70.193 73.276 69.241 C 72.647 68.315 71.694 67.599 70.422 67.115 Z " fill-rule="evenodd" fill="rgb(49,41,33)"/></g></g></svg>